Golden Render Project v1 - Asset Validation Report
Generated: 2026-06-01T17:13:10Z
==============================================

--- video/color_bars_1080p.mp4 ---
{
    "streams": [
        {
            "index": 0,
            "codec_name": "h264",
            "codec_long_name": "H.264 / AVC / MPEG-4 AVC / MPEG-4 part 10",
            "profile": "High",
            "codec_type": "video",
            "codec_tag_string": "avc1",
            "codec_tag": "0x31637661",
            "width": 1920,
            "height": 1080,
            "coded_width": 1920,
            "coded_height": 1080,
            "has_b_frames": 2,
            "sample_aspect_ratio": "1:1",
            "display_aspect_ratio": "16:9",
            "pix_fmt": "yuv420p",
            "level": 40,
            "color_range": "tv",
            "color_space": "bt470bg",
            "chroma_location": "left",
            "field_order": "progressive",
            "refs": 1,
            "is_avc": "true",
            "nal_length_size": "4",
            "id": "0x1",
            "r_frame_rate": "30/1",
            "avg_frame_rate": "30/1",
            "time_base": "1/15360",
            "start_pts": 0,
            "start_time": "0.000000",
            "duration_ts": 153600,
            "duration": "10.000000",
            "bit_rate": "19468",
            "bits_per_raw_sample": "8",
            "nb_frames": "300",
            "extradata_size": 51,
            "disposition": {
                "default": 1,
                "dub": 0,
                "original": 0,
                "comment": 0,
                "lyrics": 0,
                "karaoke": 0,
                "forced": 0,
                "hearing_impaired": 0,
                "visual_impaired": 0,
                "clean_effects": 0,
                "attached_pic": 0,
                "timed_thumbnails": 0,
                "non_diegetic": 0,
                "captions": 0,
                "descriptions": 0,
                "metadata": 0,
                "dependent": 0,
                "still_image": 0,
                "multilayer": 0
            },
            "tags": {
                "language": "und",
                "handler_name": "VideoHandler",
                "vendor_id": "[0][0][0][0]",
                "encoder": "Lavc62.11.100 libx264"
            }
        }
    ],
    "format": {
        "filename": "/home/bluepulse/Documents/code-lab/media-platform-workspace/test-assets/golden-render-project-v1/assets/video/color_bars_1080p.mp4",
        "nb_streams": 1,
        "nb_programs": 0,
        "nb_stream_groups": 0,
        "format_name": "mov,mp4,m4a,3gp,3g2,mj2",
        "format_long_name": "QuickTime / MOV",
        "start_time": "0.000000",
        "duration": "10.000000",
        "size": "28811",
        "bit_rate": "23048",
        "probe_score": 100,
        "tags": {
            "major_brand": "isom",
            "minor_version": "512",
            "compatible_brands": "isomiso2avc1mp41",
            "encoder": "Lavf62.3.100"
        }
    }
}

--- video/grid_motion_1080p.mp4 ---
{
    "streams": [
        {
            "index": 0,
            "codec_name": "h264",
            "codec_long_name": "H.264 / AVC / MPEG-4 AVC / MPEG-4 part 10",
            "profile": "High",
            "codec_type": "video",
            "codec_tag_string": "avc1",
            "codec_tag": "0x31637661",
            "width": 1920,
            "height": 1080,
            "coded_width": 1920,
            "coded_height": 1080,
            "has_b_frames": 2,
            "sample_aspect_ratio": "1:1",
            "display_aspect_ratio": "16:9",
            "pix_fmt": "yuv420p",
            "level": 40,
            "chroma_location": "left",
            "field_order": "progressive",
            "refs": 1,
            "is_avc": "true",
            "nal_length_size": "4",
            "id": "0x1",
            "r_frame_rate": "30/1",
            "avg_frame_rate": "30/1",
            "time_base": "1/15360",
            "start_pts": 0,
            "start_time": "0.000000",
            "duration_ts": 153600,
            "duration": "10.000000",
            "bit_rate": "6495100",
            "bits_per_raw_sample": "8",
            "nb_frames": "300",
            "extradata_size": 48,
            "disposition": {
                "default": 1,
                "dub": 0,
                "original": 0,
                "comment": 0,
                "lyrics": 0,
                "karaoke": 0,
                "forced": 0,
                "hearing_impaired": 0,
                "visual_impaired": 0,
                "clean_effects": 0,
                "attached_pic": 0,
                "timed_thumbnails": 0,
                "non_diegetic": 0,
                "captions": 0,
                "descriptions": 0,
                "metadata": 0,
                "dependent": 0,
                "still_image": 0,
                "multilayer": 0
            },
            "tags": {
                "language": "und",
                "handler_name": "VideoHandler",
                "vendor_id": "[0][0][0][0]",
                "encoder": "Lavc62.11.100 libx264"
            }
        }
    ],
    "format": {
        "filename": "/home/bluepulse/Documents/code-lab/media-platform-workspace/test-assets/golden-render-project-v1/assets/video/grid_motion_1080p.mp4",
        "nb_streams": 1,
        "nb_programs": 0,
        "nb_stream_groups": 0,
        "format_name": "mov,mp4,m4a,3gp,3g2,mj2",
        "format_long_name": "QuickTime / MOV",
        "start_time": "0.000000",
        "duration": "10.000000",
        "size": "8123160",
        "bit_rate": "6498528",
        "probe_score": 100,
        "tags": {
            "major_brand": "isom",
            "minor_version": "512",
            "compatible_brands": "isomiso2avc1mp41",
            "encoder": "Lavf62.3.100"
        }
    }
}

--- video/moving_box_1080p.mp4 ---
{
    "streams": [
        {
            "index": 0,
            "codec_name": "h264",
            "codec_long_name": "H.264 / AVC / MPEG-4 AVC / MPEG-4 part 10",
            "profile": "High",
            "codec_type": "video",
            "codec_tag_string": "avc1",
            "codec_tag": "0x31637661",
            "width": 1920,
            "height": 1080,
            "coded_width": 1920,
            "coded_height": 1080,
            "has_b_frames": 2,
            "sample_aspect_ratio": "1:1",
            "display_aspect_ratio": "16:9",
            "pix_fmt": "yuv420p",
            "level": 40,
            "chroma_location": "left",
            "field_order": "progressive",
            "refs": 1,
            "is_avc": "true",
            "nal_length_size": "4",
            "id": "0x1",
            "r_frame_rate": "30/1",
            "avg_frame_rate": "30/1",
            "time_base": "1/15360",
            "start_pts": 0,
            "start_time": "0.000000",
            "duration_ts": 153600,
            "duration": "10.000000",
            "bit_rate": "18324",
            "bits_per_raw_sample": "8",
            "nb_frames": "300",
            "extradata_size": 48,
            "disposition": {
                "default": 1,
                "dub": 0,
                "original": 0,
                "comment": 0,
                "lyrics": 0,
                "karaoke": 0,
                "forced": 0,
                "hearing_impaired": 0,
                "visual_impaired": 0,
                "clean_effects": 0,
                "attached_pic": 0,
                "timed_thumbnails": 0,
                "non_diegetic": 0,
                "captions": 0,
                "descriptions": 0,
                "metadata": 0,
                "dependent": 0,
                "still_image": 0,
                "multilayer": 0
            },
            "tags": {
                "language": "und",
                "handler_name": "VideoHandler",
                "vendor_id": "[0][0][0][0]",
                "encoder": "Lavc62.11.100 libx264"
            }
        }
    ],
    "format": {
        "filename": "/home/bluepulse/Documents/code-lab/media-platform-workspace/test-assets/golden-render-project-v1/assets/video/moving_box_1080p.mp4",
        "nb_streams": 1,
        "nb_programs": 0,
        "nb_stream_groups": 0,
        "format_name": "mov,mp4,m4a,3gp,3g2,mj2",
        "format_long_name": "QuickTime / MOV",
        "start_time": "0.000000",
        "duration": "10.000000",
        "size": "27377",
        "bit_rate": "21901",
        "probe_score": 100,
        "tags": {
            "major_brand": "isom",
            "minor_version": "512",
            "compatible_brands": "isomiso2avc1mp41",
            "encoder": "Lavf62.3.100"
        }
    }
}

--- video/portrait_test_1080x1920.mp4 ---
{
    "streams": [
        {
            "index": 0,
            "codec_name": "h264",
            "codec_long_name": "H.264 / AVC / MPEG-4 AVC / MPEG-4 part 10",
            "profile": "High",
            "codec_type": "video",
            "codec_tag_string": "avc1",
            "codec_tag": "0x31637661",
            "width": 1080,
            "height": 1920,
            "coded_width": 1080,
            "coded_height": 1920,
            "has_b_frames": 2,
            "sample_aspect_ratio": "1:1",
            "display_aspect_ratio": "9:16",
            "pix_fmt": "yuv420p",
            "level": 40,
            "chroma_location": "left",
            "field_order": "progressive",
            "refs": 1,
            "is_avc": "true",
            "nal_length_size": "4",
            "id": "0x1",
            "r_frame_rate": "30/1",
            "avg_frame_rate": "30/1",
            "time_base": "1/15360",
            "start_pts": 0,
            "start_time": "0.000000",
            "duration_ts": 153600,
            "duration": "10.000000",
            "bit_rate": "6866267",
            "bits_per_raw_sample": "8",
            "nb_frames": "300",
            "extradata_size": 48,
            "disposition": {
                "default": 1,
                "dub": 0,
                "original": 0,
                "comment": 0,
                "lyrics": 0,
                "karaoke": 0,
                "forced": 0,
                "hearing_impaired": 0,
                "visual_impaired": 0,
                "clean_effects": 0,
                "attached_pic": 0,
                "timed_thumbnails": 0,
                "non_diegetic": 0,
                "captions": 0,
                "descriptions": 0,
                "metadata": 0,
                "dependent": 0,
                "still_image": 0,
                "multilayer": 0
            },
            "tags": {
                "language": "und",
                "handler_name": "VideoHandler",
                "vendor_id": "[0][0][0][0]",
                "encoder": "Lavc62.11.100 libx264"
            }
        }
    ],
    "format": {
        "filename": "/home/bluepulse/Documents/code-lab/media-platform-workspace/test-assets/golden-render-project-v1/assets/video/portrait_test_1080x1920.mp4",
        "nb_streams": 1,
        "nb_programs": 0,
        "nb_stream_groups": 0,
        "format_name": "mov,mp4,m4a,3gp,3g2,mj2",
        "format_long_name": "QuickTime / MOV",
        "start_time": "0.000000",
        "duration": "10.000000",
        "size": "8586814",
        "bit_rate": "6869451",
        "probe_score": 100,
        "tags": {
            "major_brand": "isom",
            "minor_version": "512",
            "compatible_brands": "isomiso2avc1mp41",
            "encoder": "Lavf62.3.100"
        }
    }
}

--- video/square_test_1080x1080.mp4 ---
{
    "streams": [
        {
            "index": 0,
            "codec_name": "h264",
            "codec_long_name": "H.264 / AVC / MPEG-4 AVC / MPEG-4 part 10",
            "profile": "High",
            "codec_type": "video",
            "codec_tag_string": "avc1",
            "codec_tag": "0x31637661",
            "width": 1080,
            "height": 1080,
            "coded_width": 1080,
            "coded_height": 1080,
            "has_b_frames": 2,
            "sample_aspect_ratio": "1:1",
            "display_aspect_ratio": "1:1",
            "pix_fmt": "yuv420p",
            "level": 32,
            "chroma_location": "left",
            "field_order": "progressive",
            "refs": 1,
            "is_avc": "true",
            "nal_length_size": "4",
            "id": "0x1",
            "r_frame_rate": "30/1",
            "avg_frame_rate": "30/1",
            "time_base": "1/15360",
            "start_pts": 0,
            "start_time": "0.000000",
            "duration_ts": 122880,
            "duration": "8.000000",
            "bit_rate": "3912151",
            "bits_per_raw_sample": "8",
            "nb_frames": "240",
            "extradata_size": 48,
            "disposition": {
                "default": 1,
                "dub": 0,
                "original": 0,
                "comment": 0,
                "lyrics": 0,
                "karaoke": 0,
                "forced": 0,
                "hearing_impaired": 0,
                "visual_impaired": 0,
                "clean_effects": 0,
                "attached_pic": 0,
                "timed_thumbnails": 0,
                "non_diegetic": 0,
                "captions": 0,
                "descriptions": 0,
                "metadata": 0,
                "dependent": 0,
                "still_image": 0,
                "multilayer": 0
            },
            "tags": {
                "language": "und",
                "handler_name": "VideoHandler",
                "vendor_id": "[0][0][0][0]",
                "encoder": "Lavc62.11.100 libx264"
            }
        }
    ],
    "format": {
        "filename": "/home/bluepulse/Documents/code-lab/media-platform-workspace/test-assets/golden-render-project-v1/assets/video/square_test_1080x1080.mp4",
        "nb_streams": 1,
        "nb_programs": 0,
        "nb_stream_groups": 0,
        "format_name": "mov,mp4,m4a,3gp,3g2,mj2",
        "format_long_name": "QuickTime / MOV",
        "start_time": "0.000000",
        "duration": "8.000000",
        "size": "3915803",
        "bit_rate": "3915803",
        "probe_score": 100,
        "tags": {
            "major_brand": "isom",
            "minor_version": "512",
            "compatible_brands": "isomiso2avc1mp41",
            "encoder": "Lavf62.3.100"
        }
    }
}

--- video/green_screen_test.mp4 ---
{
    "streams": [
        {
            "index": 0,
            "codec_name": "h264",
            "codec_long_name": "H.264 / AVC / MPEG-4 AVC / MPEG-4 part 10",
            "profile": "High",
            "codec_type": "video",
            "codec_tag_string": "avc1",
            "codec_tag": "0x31637661",
            "width": 1920,
            "height": 1080,
            "coded_width": 1920,
            "coded_height": 1080,
            "has_b_frames": 2,
            "sample_aspect_ratio": "1:1",
            "display_aspect_ratio": "16:9",
            "pix_fmt": "yuv420p",
            "level": 40,
            "chroma_location": "left",
            "field_order": "progressive",
            "refs": 1,
            "is_avc": "true",
            "nal_length_size": "4",
            "id": "0x1",
            "r_frame_rate": "30/1",
            "avg_frame_rate": "30/1",
            "time_base": "1/15360",
            "start_pts": 0,
            "start_time": "0.000000",
            "duration_ts": 92160,
            "duration": "6.000000",
            "bit_rate": "18792",
            "bits_per_raw_sample": "8",
            "nb_frames": "180",
            "extradata_size": 48,
            "disposition": {
                "default": 1,
                "dub": 0,
                "original": 0,
                "comment": 0,
                "lyrics": 0,
                "karaoke": 0,
                "forced": 0,
                "hearing_impaired": 0,
                "visual_impaired": 0,
                "clean_effects": 0,
                "attached_pic": 0,
                "timed_thumbnails": 0,
                "non_diegetic": 0,
                "captions": 0,
                "descriptions": 0,
                "metadata": 0,
                "dependent": 0,
                "still_image": 0,
                "multilayer": 0
            },
            "tags": {
                "language": "und",
                "handler_name": "VideoHandler",
                "vendor_id": "[0][0][0][0]",
                "encoder": "Lavc62.11.100 libx264"
            }
        }
    ],
    "format": {
        "filename": "/home/bluepulse/Documents/code-lab/media-platform-workspace/test-assets/golden-render-project-v1/assets/video/green_screen_test.mp4",
        "nb_streams": 1,
        "nb_programs": 0,
        "nb_stream_groups": 0,
        "format_name": "mov,mp4,m4a,3gp,3g2,mj2",
        "format_long_name": "QuickTime / MOV",
        "start_time": "0.000000",
        "duration": "6.000000",
        "size": "17122",
        "bit_rate": "22829",
        "probe_score": 100,
        "tags": {
            "major_brand": "isom",
            "minor_version": "512",
            "compatible_brands": "isomiso2avc1mp41",
            "encoder": "Lavf62.3.100"
        }
    }
}


Summary
-------
Errors:   0
ffprobe:  true
